<?xml version="1.0" encoding="UTF-8" standalone="no"?>
<svg
   version="1.1"
   width="391.78848pt"
   height="1002.73pt"
   viewBox="0 0 391.78848 1002.73"
   overflow="visible"
   id="svg6"
   sodipodi:docname="2D-Coil-Cooling.svg"
   inkscape:version="1.3 (0e150ed6c4, 2023-07-21)"
   xmlns:inkscape="http://www.inkscape.org/namespaces/inkscape"
   xmlns:sodipodi="http://sodipodi.sourceforge.net/DTD/sodipodi-0.dtd"
   xmlns="http://www.w3.org/2000/svg"
   xmlns:svg="http://www.w3.org/2000/svg">
  <defs
     id="defs6" />
  <sodipodi:namedview
     id="namedview6"
     pagecolor="#505050"
     bordercolor="#eeeeee"
     borderopacity="1"
     inkscape:showpageshadow="0"
     inkscape:pageopacity="0"
     inkscape:pagecheckerboard="0"
     inkscape:deskcolor="#505050"
     inkscape:document-units="pt"
     inkscape:zoom="0.3927255"
     inkscape:cx="-142.59324"
     inkscape:cy="558.91456"
     inkscape:window-width="2560"
     inkscape:window-height="1369"
     inkscape:window-x="-8"
     inkscape:window-y="-8"
     inkscape:window-maximized="1"
     inkscape:current-layer="svg6" />
  <path
     d="M 52.715128,1000.6626 V 2.067383"
     stroke="#000000"
     stroke-width="5.0961"
     fill="none"
     id="path1"
     style="stroke:#000000;stroke-width:15;stroke-dasharray:none;stroke-opacity:1"
     inkscape:export-filename="2D-Coil-Cooling.svg"
     inkscape:export-xdpi="96"
     inkscape:export-ydpi="96" />
  <path
     d="M 384.28849,1000.6626 V 2.067383"
     stroke="#000000"
     stroke-width="5.0961"
     fill="none"
     id="path2"
     style="stroke:#000000;stroke-width:15;stroke-dasharray:none;stroke-opacity:1" />
  <path
     d="M 339.07336,1000.6626 V 2.067383"
     stroke="#000000"
     stroke-width="5.0961"
     fill="none"
     id="path3"
     style="stroke:#000000;stroke-width:15;stroke-dasharray:none;stroke-opacity:1" />
  <path
     d="M 7.5000011,1000.6626 V 2.067383"
     stroke="#000000"
     stroke-width="5.0961"
     fill="none"
     id="path4"
     style="stroke:#000000;stroke-width:15;stroke-dasharray:none;stroke-opacity:1" />
  <path
     d="m 198.02941,65.709896 q -5.81722,0 -10.32853,2.374375 -4.51131,2.374375 -7.53864,6.766969 -3.02733,4.392594 -4.63003,10.565969 -1.54334,6.173375 -1.54334,13.712015 0,7.538646 1.66206,13.830736 1.72142,6.23273 4.80811,10.74405 3.14604,4.51131 7.71672,7.0044 4.57067,2.4931 10.26917,2.4931 3.97708,0 7.24184,-1.24655 3.26477,-1.30591 5.93594,-3.62092 2.67117,-2.31502 4.74875,-5.46107 2.07758,-3.2054 3.68028,-7.06376 l 7.598,4.63003 q -1.84014,4.68939 -4.57067,8.72583 -2.73053,4.03644 -6.41081,7.0044 -3.68029,2.96797 -8.31032,4.6894 -4.63003,1.66206 -10.38789,1.66206 -8.31031,0 -14.6024,-3.20541 -6.23274,-3.26476 -10.44725,-9.02262 -4.15516,-5.81722 -6.2921,-13.77138 -2.07758,-7.95415 -2.07758,-17.392296 0,-9.794297 2.1963,-17.689094 2.25566,-7.894796 6.47017,-13.415218 4.27388,-5.579782 10.50661,-8.54775 6.23274,-3.027329 14.18689,-3.027329 10.92213,0 18.28269,5.223625 7.36056,5.223625 10.80341,15.492797 l -8.78519,3.561563 q -0.94975,-2.967969 -2.61181,-5.639141 -1.66207,-2.730531 -4.15516,-4.808109 -2.49309,-2.077578 -5.81722,-3.324125 -3.32412,-1.246547 -7.598,-1.246547 z"
     id="text4"
     style="font-size:121.568px;font-family:'Arial Narrow';text-anchor:middle;stroke:#000000;stroke-width:15"
     aria-label="C" />
  <path
     d="m 194.67589,851.30517 q -5.81722,0 -10.32853,2.37438 -4.51131,2.37437 -7.53864,6.76697 -3.02733,4.39259 -4.63003,10.56596 -1.54335,6.17338 -1.54335,13.71202 0,7.53864 1.66207,13.83073 1.72142,6.23274 4.80811,10.74405 3.14604,4.51131 7.71672,7.00441 4.57067,2.49309 10.26917,2.49309 3.97708,0 7.24184,-1.24655 3.26477,-1.3059 5.93594,-3.62092 2.67117,-2.31501 4.74875,-5.46106 2.07758,-3.20541 3.68028,-7.06377 l 7.598,4.63004 q -1.84014,4.68939 -4.57067,8.72582 -2.73053,4.03644 -6.41081,7.00441 -3.68029,2.96797 -8.31032,4.68939 -4.63003,1.66206 -10.38789,1.66206 -8.31031,0 -14.6024,-3.2054 -6.23274,-3.26477 -10.44725,-9.02263 -4.15516,-5.81722 -6.2921,-13.77137 -2.07758,-7.95416 -2.07758,-17.3923 0,-9.7943 2.1963,-17.68909 2.25566,-7.8948 6.47017,-13.41522 4.27388,-5.57978 10.50661,-8.54775 6.23274,-3.02733 14.18689,-3.02733 10.92213,0 18.28269,5.22362 7.36056,5.22363 10.80341,15.4928 l -8.78519,3.56156 q -0.94975,-2.96796 -2.61181,-5.63914 -1.66207,-2.73053 -4.15516,-4.80811 -2.49309,-2.07757 -5.81722,-3.32412 -3.32412,-1.24655 -7.598,-1.24655 z"
     id="text5"
     style="font-size:121.568px;font-family:'Arial Narrow';stroke:#000000;stroke-width:15"
     aria-label="C" />
  <path
     d="M 52.715128,1000.6626 339.07336,2.067383"
     stroke="#000000"
     stroke-width="5.0961"
     fill="none"
     id="path5"
     style="stroke:#000000;stroke-width:15;stroke-dasharray:none;stroke-opacity:1" />
  <path
     d="M 339.07336,1000.6626 52.715128,2.067383"
     stroke="#000000"
     stroke-width="5.0961"
     fill="none"
     id="path6"
     style="stroke:#000000;stroke-width:15;stroke-dasharray:none;stroke-opacity:1" />
</svg>
