<?xml version="1.0" encoding="UTF-8" standalone="no"?>
<svg
   version="1.1"
   width="612pt"
   height="792pt"
   viewBox="0 0 612 792"
   overflow="visible"
   id="svg10"
   sodipodi:docname="2D-Generic-Sensor.svg"
   inkscape:version="1.3 (0e150ed6c4, 2023-07-21)"
   xmlns:inkscape="http://www.inkscape.org/namespaces/inkscape"
   xmlns:sodipodi="http://sodipodi.sourceforge.net/DTD/sodipodi-0.dtd"
   xmlns="http://www.w3.org/2000/svg"
   xmlns:svg="http://www.w3.org/2000/svg">
  <defs
     id="defs10" />
  <sodipodi:namedview
     id="namedview10"
     pagecolor="#505050"
     bordercolor="#eeeeee"
     borderopacity="1"
     inkscape:showpageshadow="0"
     inkscape:pageopacity="0"
     inkscape:pagecheckerboard="0"
     inkscape:deskcolor="#505050"
     inkscape:document-units="pt"
     inkscape:zoom="0.13884943"
     inkscape:cx="-2729.5755"
     inkscape:cy="846.24042"
     inkscape:window-width="2560"
     inkscape:window-height="1369"
     inkscape:window-x="-8"
     inkscape:window-y="-8"
     inkscape:window-maximized="1"
     inkscape:current-layer="svg10" />
  <path
     d="m 321.90815,-273.72566 v 798.5515"
     stroke="#000000"
     stroke-width="8.06211"
     fill="none"
     id="path1"
     style="stroke:#000000;stroke-opacity:1;stroke-width:15;stroke-dasharray:none"
     inkscape:export-filename="2D-Generic-Sensor.svg"
     inkscape:export-xdpi="72.000008"
     inkscape:export-ydpi="72.000008" />
  <path
     d="m 563.19688,566.94364 v 133.364"
     stroke="#000000"
     stroke-width="8.06211"
     fill="none"
     id="path2"
     style="stroke:#000000;stroke-opacity:1;stroke-width:15;stroke-dasharray:none" />
  <path
     d="m 365.77944,612.56844 c 2.18685,-21.5897 -22.285,-46.0581 -43.87129,-43.8713 -21.58628,-2.1868 -46.05813,22.2816 -43.87129,43.8713 -2.18684,21.5863 22.28501,46.0581 43.87129,43.8713 21.58629,2.1868 46.05814,-22.285 43.87129,-43.8713 z"
     stroke="#000000"
     stroke-width="8.06211"
     fill="none"
     id="path3"
     style="stroke:#000000;stroke-opacity:1;stroke-width:15;stroke-dasharray:none" />
  <path
     d="M 122.73721,524.82584 H 521.0791"
     stroke="#000000"
     stroke-width="8.06211"
     fill="none"
     id="path4"
     style="stroke:#000000;stroke-opacity:1;stroke-width:15;stroke-dasharray:none" />
  <path
     d="m 80.622781,700.30764 v -133.364"
     stroke="#000000"
     stroke-width="8.06211"
     fill="none"
     id="path5"
     style="stroke:#000000;stroke-opacity:1;stroke-width:15;stroke-dasharray:none" />
  <path
     d="m 563.19688,566.94364 c 2.09951,-20.7263 -21.39481,-44.2173 -42.11778,-42.1178"
     stroke="#000000"
     stroke-width="8.06211"
     fill="none"
     id="path6"
     style="stroke:#000000;stroke-opacity:1;stroke-width:15;stroke-dasharray:none" />
  <path
     d="m 122.73721,524.82584 c -20.72297,-2.0995 -44.217289,21.3915 -42.114429,42.1178"
     stroke="#000000"
     stroke-width="8.06211"
     fill="none"
     id="path7"
     style="stroke:#000000;stroke-opacity:1;stroke-width:15;stroke-dasharray:none" />
  <path
     d="m 234.16893,612.56844 c 2.18685,-21.5897 -22.285,-46.0581 -43.87128,-43.8713 -21.58629,-2.1868 -46.05814,22.2816 -43.87129,43.8713 -2.18685,21.5863 22.285,46.0581 43.87129,43.8713 21.58628,2.1868 46.05813,-22.285 43.87128,-43.8713 z"
     stroke="#000000"
     stroke-width="8.06211"
     fill="none"
     id="path8"
     style="stroke:#000000;stroke-opacity:1;stroke-width:15;stroke-dasharray:none" />
  <path
     d="m 497.38995,612.56844 c 2.18684,-21.5897 -22.285,-46.0581 -43.87129,-43.8713 -21.58629,-2.1868 -46.05814,22.2816 -43.87129,43.8713 -2.18685,21.5863 22.285,46.0581 43.87129,43.8713 21.58629,2.1868 46.05813,-22.285 43.87129,-43.8713 z"
     stroke="#000000"
     stroke-width="8.06211"
     fill="none"
     id="path9"
     style="stroke:#000000;stroke-opacity:1;stroke-width:15;stroke-dasharray:none" />
  <path
     d="M 36.751501,700.30764 H 607.06817 l -21.939,21.9356 H 58.687141 Z"
     stroke="#000000"
     stroke-width="8.06211"
     fill="none"
     id="path10"
     style="stroke:#000000;stroke-opacity:1;stroke-width:15;stroke-dasharray:none" />
</svg>
