<?xml version="1.0" encoding="UTF-8" standalone="no"?>
<svg
   version="1.1"
   width="589.78143pt"
   height="999.99994pt"
   viewBox="0 0 589.78143 999.99994"
   overflow="visible"
   id="svg10"
   sodipodi:docname="2D-Generic-Sensor.svg"
   inkscape:version="1.3 (0e150ed6c4, 2023-07-21)"
   xmlns:inkscape="http://www.inkscape.org/namespaces/inkscape"
   xmlns:sodipodi="http://sodipodi.sourceforge.net/DTD/sodipodi-0.dtd"
   xmlns="http://www.w3.org/2000/svg"
   xmlns:svg="http://www.w3.org/2000/svg">
  <defs
     id="defs10" />
  <sodipodi:namedview
     id="namedview10"
     pagecolor="#505050"
     bordercolor="#eeeeee"
     borderopacity="1"
     inkscape:showpageshadow="0"
     inkscape:pageopacity="0"
     inkscape:pagecheckerboard="0"
     inkscape:deskcolor="#505050"
     inkscape:document-units="pt"
     inkscape:zoom="0.31103861"
     inkscape:cx="-202.5472"
     inkscape:cy="834.30156"
     inkscape:window-width="2560"
     inkscape:window-height="1369"
     inkscape:window-x="-8"
     inkscape:window-y="-8"
     inkscape:window-maximized="1"
     inkscape:current-layer="svg10" />
  <path
     d="M 294.88849,1.7490234e-5 V 798.55152"
     stroke="#000000"
     stroke-width="8.06211"
     fill="none"
     id="path1"
     style="stroke:#000000;stroke-opacity:1;stroke-width:15;stroke-dasharray:none" />
  <path
     d="m 536.17722,840.66932 v 133.364"
     stroke="#000000"
     stroke-width="8.06211"
     fill="none"
     id="path2"
     style="stroke:#000000;stroke-opacity:1;stroke-width:15;stroke-dasharray:none" />
  <path
     d="m 338.75978,886.29412 c 2.18685,-21.5897 -22.285,-46.0581 -43.87129,-43.8713 -21.58628,-2.1868 -46.05813,22.2816 -43.87129,43.8713 -2.18684,21.5863 22.28501,46.0581 43.87129,43.8713 21.58629,2.1868 46.05814,-22.285 43.87129,-43.8713 z"
     stroke="#000000"
     stroke-width="8.06211"
     fill="none"
     id="path3"
     style="stroke:#000000;stroke-opacity:1;stroke-width:15;stroke-dasharray:none" />
  <path
     d="M 95.717549,798.55152 H 494.05944"
     stroke="#000000"
     stroke-width="8.06211"
     fill="none"
     id="path4"
     style="stroke:#000000;stroke-opacity:1;stroke-width:15;stroke-dasharray:none" />
  <path
     d="m 53.60312,974.03332 v -133.364"
     stroke="#000000"
     stroke-width="8.06211"
     fill="none"
     id="path5"
     style="stroke:#000000;stroke-opacity:1;stroke-width:15;stroke-dasharray:none" />
  <path
     d="m 536.17722,840.66932 c 2.09951,-20.7263 -21.39481,-44.2173 -42.11778,-42.1178"
     stroke="#000000"
     stroke-width="8.06211"
     fill="none"
     id="path6"
     style="stroke:#000000;stroke-opacity:1;stroke-width:15;stroke-dasharray:none" />
  <path
     d="m 95.717549,798.55152 c -20.72297,-2.0995 -44.217289,21.3915 -42.114429,42.1178"
     stroke="#000000"
     stroke-width="8.06211"
     fill="none"
     id="path7"
     style="stroke:#000000;stroke-opacity:1;stroke-width:15;stroke-dasharray:none" />
  <path
     d="m 207.14927,886.29412 c 2.18685,-21.5897 -22.285,-46.0581 -43.87128,-43.8713 -21.58629,-2.1868 -46.05814,22.2816 -43.87129,43.8713 -2.18685,21.5863 22.285,46.0581 43.87129,43.8713 21.58628,2.1868 46.05813,-22.285 43.87128,-43.8713 z"
     stroke="#000000"
     stroke-width="8.06211"
     fill="none"
     id="path8"
     style="stroke:#000000;stroke-opacity:1;stroke-width:15;stroke-dasharray:none" />
  <path
     d="m 470.37029,886.29412 c 2.18684,-21.5897 -22.285,-46.0581 -43.87129,-43.8713 -21.58629,-2.1868 -46.05814,22.2816 -43.87129,43.8713 -2.18685,21.5863 22.285,46.0581 43.87129,43.8713 21.58629,2.1868 46.05813,-22.285 43.87129,-43.8713 z"
     stroke="#000000"
     stroke-width="8.06211"
     fill="none"
     id="path9"
     style="stroke:#000000;stroke-opacity:1;stroke-width:15;stroke-dasharray:none" />
  <path
     d="M 9.7318401,974.03332 H 580.04851 l -21.939,21.9356 H 31.66748 Z"
     stroke="#000000"
     stroke-width="8.06211"
     fill="none"
     id="path10"
     style="stroke:#000000;stroke-opacity:1;stroke-width:15;stroke-dasharray:none" />
</svg>
