<?xml version="1.0" encoding="UTF-8" standalone="no"?>
<svg
   version="1.1"
   width="507.17496pt"
   height="1002.5775pt"
   viewBox="0 0 507.17496 1002.5775"
   overflow="visible"
   id="svg15"
   sodipodi:docname="2D-Fan-Horizontal.svg"
   inkscape:version="1.3 (0e150ed6c4, 2023-07-21)"
   xmlns:inkscape="http://www.inkscape.org/namespaces/inkscape"
   xmlns:sodipodi="http://sodipodi.sourceforge.net/DTD/sodipodi-0.dtd"
   xmlns="http://www.w3.org/2000/svg"
   xmlns:svg="http://www.w3.org/2000/svg">
  <defs
     id="defs15" />
  <sodipodi:namedview
     id="namedview15"
     pagecolor="#505050"
     bordercolor="#eeeeee"
     borderopacity="1"
     inkscape:showpageshadow="0"
     inkscape:pageopacity="0"
     inkscape:pagecheckerboard="0"
     inkscape:deskcolor="#505050"
     inkscape:document-units="pt"
     inkscape:zoom="0.55539772"
     inkscape:cx="505.94374"
     inkscape:cy="897.555"
     inkscape:window-width="2560"
     inkscape:window-height="1369"
     inkscape:window-x="-8"
     inkscape:window-y="-8"
     inkscape:window-maximized="1"
     inkscape:current-layer="svg15" />
  <path
     d="m 180.73594,966.7206 h 14.6942"
     stroke="#000000"
     stroke-width="3.08621"
     fill="none"
     id="path1"
     style="stroke:#040404;stroke-width:15;stroke-dasharray:none;stroke-opacity:1"
     inkscape:export-filename="2D-Fan-Horizontal.svg"
     inkscape:export-xdpi="72"
     inkscape:export-ydpi="72" />
  <path
     d="m 188.08374,932.43535 v 68.57045"
     stroke="#000000"
     stroke-width="3.08621"
     fill="none"
     id="path2"
     style="stroke:#040404;stroke-width:15;stroke-dasharray:none;stroke-opacity:1" />
  <path
     d="m 173.38824,932.43535 h 29.3897 l -14.6942,68.57045 z"
     stroke="#000000"
     stroke-width="3.08621"
     fill="none"
     id="path3"
     style="stroke:#040404;stroke-width:15;stroke-dasharray:none;stroke-opacity:1" />
  <path
     d="m 188.08374,834.42629 v -71.3121"
     stroke="#000000"
     stroke-width="3.08621"
     fill="none"
     id="path4"
     style="stroke:#040404;stroke-width:15;stroke-dasharray:none;stroke-opacity:1" />
  <path
     d="m 188.08244,847.57609 c -10.8815,0.328 -23.2174,-3.3395 -22.114,-6.5749 -1.1034,-3.2341 11.2325,-6.9029 22.114,-6.5749"
     stroke="#000000"
     stroke-width="3.08621"
     fill="none"
     id="path5"
     style="stroke:#040404;stroke-width:15;stroke-dasharray:none;stroke-opacity:1" />
  <path
     d="M 188.08374,978.1486 V 860.72589"
     stroke="#000000"
     stroke-width="3.08621"
     fill="none"
     id="path6"
     style="stroke:#040404;stroke-width:15;stroke-dasharray:none;stroke-opacity:1" />
  <path
     d="m 188.08244,847.57609 c 10.8827,-0.328 23.2186,3.3395 22.1153,6.5749 1.1033,3.2354 -11.2326,6.9028 -22.1153,6.5749"
     stroke="#000000"
     stroke-width="3.08621"
     fill="none"
     id="path7"
     style="stroke:#040404;stroke-width:15;stroke-dasharray:none;stroke-opacity:1" />
  <path
     d="m 360.90905,506.46738 34.8883,-141.62631"
     stroke="#000000"
     stroke-width="12.3448"
     fill="none"
     id="path8"
     style="stroke:#040404;stroke-width:15;stroke-dasharray:none;stroke-opacity:1" />
  <path
     d="M 429.65306,227.41207 464.54146,85.785755"
     stroke="#000000"
     stroke-width="12.3448"
     fill="none"
     id="path9"
     style="stroke:#040404;stroke-width:15;stroke-dasharray:none;stroke-opacity:1" />
  <path
     d="m 425.17946,41.196455 c -19.51911,-1.979098 -41.64721,20.1491 -39.66821,39.6681 -1.979,19.519005 20.1491,41.647105 39.66821,39.668105 19.5189,1.979 41.6471,-20.1491 39.6681,-39.668105 1.979,-19.519 -20.1492,-41.647198 -39.6681,-39.6681 z"
     stroke="#000000"
     stroke-width="12.3448"
     fill="none"
     id="path10"
     style="stroke:#040404;stroke-width:15;stroke-dasharray:none;stroke-opacity:1" />
  <path
     d="m 368.63865,684.27178 v 78.84241 H 7.5274298 V 459.58008 C 6.4665298,397.79027 36.73843,331.27727 84.025628,291.49076 c 77.890812,-77.89859 238.850922,-82.90329 321.431622,-9.9967 62.96641,45.36601 102.08671,134.50481 92.84991,211.55982 -4.8864,77.4524 -59.5214,158.0205 -129.66851,191.2179 z"
     stroke="#000000"
     stroke-width="12.3448"
     fill="none"
     id="path11"
     style="stroke:#040404;stroke-width:15;stroke-dasharray:none;stroke-opacity:1" />
  <path
     d="m 244.20515,350.95317 c -59.22311,-6.004 -126.35851,61.1314 -120.35451,120.35321 -6.004,59.2231 61.1314,126.3585 120.35451,120.3546 59.2219,6.0039 126.3573,-61.1315 120.3533,-120.3546 6.004,-59.22181 -61.1314,-126.35721 -120.3533,-120.35321 z"
     stroke="#000000"
     stroke-width="12.3448"
     fill="none"
     id="path12"
     style="stroke:#040404;stroke-width:15;stroke-dasharray:none;stroke-opacity:1" />
  <path
     d="M 143.11504,405.99187 228.21345,287.52886"
     stroke="#000000"
     stroke-width="12.3448"
     fill="none"
     id="path13"
     style="stroke:#040404;stroke-width:15;stroke-dasharray:none;stroke-opacity:1" />
  <path
     d="M 310.78885,172.57646 395.88735,54.114755"
     stroke="#000000"
     stroke-width="12.3448"
     fill="none"
     id="path14"
     style="stroke:#040404;stroke-width:15;stroke-dasharray:none;stroke-opacity:1" />
  <path
     d="m 425.17946,7.7367571 c -35.98401,-3.6482 -76.77601,37.1437979 -73.12791,73.1277979 -3.6481,35.983905 37.1439,76.775905 73.12791,73.127805 35.9839,3.6481 76.7759,-37.1439 73.1277,-73.127805 3.6482,-35.984 -37.1438,-76.7759979 -73.1277,-73.1277979 z"
     stroke="#000000"
     stroke-width="12.3448"
     fill="none"
     id="path15"
     style="stroke:#040404;stroke-width:15;stroke-dasharray:none;stroke-opacity:1" />
</svg>
