<?xml version="1.0" encoding="UTF-8" standalone="no"?>
<svg
   version="1.1"
   width="247.67714pt"
   height="1000pt"
   viewBox="0 0 247.67714 1000"
   overflow="visible"
   id="svg15"
   sodipodi:docname="2D-Damper.svg"
   inkscape:version="1.3 (0e150ed6c4, 2023-07-21)"
   xmlns:inkscape="http://www.inkscape.org/namespaces/inkscape"
   xmlns:sodipodi="http://sodipodi.sourceforge.net/DTD/sodipodi-0.dtd"
   xmlns="http://www.w3.org/2000/svg"
   xmlns:svg="http://www.w3.org/2000/svg">
  <defs
     id="defs15" />
  <sodipodi:namedview
     id="namedview15"
     pagecolor="#505050"
     bordercolor="#eeeeee"
     borderopacity="1"
     inkscape:showpageshadow="0"
     inkscape:pageopacity="0"
     inkscape:pagecheckerboard="0"
     inkscape:deskcolor="#505050"
     inkscape:document-units="pt"
     inkscape:zoom="0.5"
     inkscape:cx="370"
     inkscape:cy="553"
     inkscape:window-width="2560"
     inkscape:window-height="1369"
     inkscape:window-x="-8"
     inkscape:window-y="-8"
     inkscape:window-maximized="1"
     inkscape:current-layer="svg15" />
  <path
     d="M 217.39367,662.3339 24.669213,576.63811"
     stroke="#000000"
     stroke-width="18.7611"
     fill="none"
     id="path1"
     inkscape:export-filename="2D-Damper.svg"
     inkscape:export-xdpi="72"
     inkscape:export-ydpi="72"
     style="stroke:#000000;stroke-opacity:1;stroke-width:15;stroke-dasharray:none" />
  <path
     d="m 129.19797,619.4852 c 0.40805,4.018 -4.14776,8.5738 -8.16731,8.1673 -4.01799,0.4065 -8.5738,-4.1493 -8.16731,-8.1673 -0.40649,-4.01953 4.14932,-8.57377 8.16731,-8.16728 4.01955,-0.40649 8.57536,4.14775 8.16731,8.16728 z"
     stroke="#000000"
     stroke-width="18.7611"
     fill="none"
     id="path2"
     style="stroke:#000000;stroke-opacity:1;stroke-width:15;stroke-dasharray:none" />
  <path
     d="m 129.19797,187.77624 c 0.40805,-4.01799 -4.14776,-8.5738 -8.16731,-8.16731 -4.01799,-0.40649 -8.5738,4.14932 -8.16731,8.16731 -0.40649,4.01955 4.14932,8.57536 8.16731,8.16731 4.01955,0.40805 8.57536,-4.14776 8.16731,-8.16731 z"
     stroke="#000000"
     stroke-width="18.7611"
     fill="none"
     id="path3"
     style="stroke:#000000;stroke-opacity:1;stroke-width:15;stroke-dasharray:none" />
  <path
     d="m 129.19797,70.63692 c 0.40805,4.01799 -4.14776,8.5738 -8.16731,8.16575 -4.01799,0.40805 -8.5738,-4.14776 -8.16731,-8.16575 -0.40649,-4.01955 4.14932,-8.57536 8.16731,-8.16731 4.01955,-0.40805 8.57536,4.14776 8.16731,8.16731 z"
     stroke="#000000"
     stroke-width="18.7611"
     fill="none"
     id="path4"
     style="stroke:#000000;stroke-opacity:1;stroke-width:15;stroke-dasharray:none" />
  <path
     d="M 217.39367,387.90975 24.669213,302.21396"
     stroke="#000000"
     stroke-width="18.7611"
     fill="none"
     id="path5"
     style="stroke:#000000;stroke-opacity:1;stroke-width:15;stroke-dasharray:none" />
  <path
     d="M 217.39367,113.48404 24.669213,27.78824"
     stroke="#000000"
     stroke-width="18.7611"
     fill="none"
     id="path6"
     style="stroke:#000000;stroke-opacity:1;stroke-width:15;stroke-dasharray:none" />
  <path
     d="m 129.19797,462.20195 c 0.40805,-4.01955 -4.14776,-8.57536 -8.16731,-8.16731 -4.01799,-0.40805 -8.5738,4.14776 -8.16731,8.16731 -0.40649,4.018 4.14932,8.5738 8.16731,8.16575 4.01955,0.40805 8.57536,-4.14775 8.16731,-8.16575 z"
     stroke="#000000"
     stroke-width="18.7611"
     fill="none"
     id="path7"
     style="stroke:#000000;stroke-opacity:1;stroke-width:15;stroke-dasharray:none" />
  <path
     d="M 217.39367,419.35328 24.669213,505.04907"
     stroke="#000000"
     stroke-width="18.7611"
     fill="none"
     id="path8"
     style="stroke:#000000;stroke-opacity:1;stroke-width:15;stroke-dasharray:none" />
  <path
     d="M 123.83856,789.0445 V 3.2031252e-7"
     stroke="#000000"
     stroke-width="18.7611"
     fill="none"
     id="path9"
     style="stroke:#000000;stroke-opacity:1;stroke-width:15;stroke-dasharray:none" />
  <path
     d="m 129.19797,345.06108 c 0.40805,4.01799 -4.14776,8.5738 -8.16731,8.16731 -4.01799,0.40649 -8.5738,-4.14932 -8.16731,-8.16731 -0.40649,-4.01956 4.14932,-8.57537 8.16731,-8.16732 4.01955,-0.40805 8.57536,4.14776 8.16731,8.16732 z"
     stroke="#000000"
     stroke-width="18.7611"
     fill="none"
     id="path10"
     style="stroke:#000000;stroke-opacity:1;stroke-width:15;stroke-dasharray:none" />
  <path
     d="M 217.39367,144.92912 24.669213,230.62491"
     stroke="#000000"
     stroke-width="18.7611"
     fill="none"
     id="path11"
     style="stroke:#000000;stroke-opacity:1;stroke-width:15;stroke-dasharray:none" />
  <path
     d="M 65.035173,762.9103 H 182.64195 V 998.1239 H 65.035173 Z"
     stroke="#000000"
     stroke-width="3.75221"
     fill="none"
     id="path12"
     style="stroke:#000000;stroke-opacity:1;stroke-width:15;stroke-dasharray:none" />
  <path
     d="m 139.08348,804.2894 c 0.75982,-7.5013 -7.74362,-16.0063 -15.24492,-15.2449 -7.50285,-0.7614 -16.0063,7.7436 -15.24648,15.2449 -0.75982,7.5013 7.74363,16.0063 15.24648,15.2449 7.5013,0.7614 16.00474,-7.7436 15.24492,-15.2449 z"
     stroke="#000000"
     stroke-width="3.75221"
     fill="none"
     id="path13"
     style="stroke:#000000;stroke-opacity:1;stroke-width:15;stroke-dasharray:none" />
  <path
     d="M 1.8761031,3.2031252e-7 V 696.9277"
     stroke="#000000"
     stroke-width="3.75221"
     fill="none"
     id="path14"
     style="stroke:#000000;stroke-opacity:1;stroke-width:15;stroke-dasharray:none" />
  <path
     d="M 245.80103,3.2031252e-7 V 696.9277"
     stroke="#000000"
     stroke-width="3.75221"
     fill="none"
     id="path15"
     style="stroke:#000000;stroke-opacity:1;stroke-width:15;stroke-dasharray:none" />
</svg>
